<svg version="1.1" id="Layer_1" xmlns="http://www.w3.org/2000/svg" xmlns:xlink="http://www.w3.org/1999/xlink" x="0px" y="0px"
	 width="100%" viewBox="144 180 916 847" enable-background="new 0 0 1220 1220" xml:space="preserve">

<path fill="#FF706D" opacity="1.000000" stroke="none" 
	d="
M1018.014160,181.855392 
	C1028.893066,183.635788 1039.200928,186.853485 1046.858765,195.306702 
	C1053.241333,202.352402 1057.261475,210.730530 1058.663818,220.887604 
	C1058.240479,223.106598 1057.996704,224.588104 1057.996582,226.069611 
	C1057.986694,395.121155 1057.994751,564.172729 1058.001709,733.224243 
	C1058.001831,737.218811 1057.996460,741.213440 1057.993652,745.208008 
	C1056.300659,750.341553 1055.604492,756.137756 1052.718628,760.478271 
	C1045.458130,771.398438 1035.894531,779.668152 1021.098633,780.949219 
	C1013.390137,780.923828 1006.568359,780.997375 999.746521,780.998047 
	C917.546143,781.006104 835.345825,780.997253 753.145447,781.033936 
	C750.690796,781.035034 748.236450,781.483826 745.571106,781.771240 
	C745.360291,781.818542 744.943176,781.931458 744.478333,781.913940 
	C667.984436,781.893860 591.955322,781.837097 515.926392,781.939819 
	C502.651550,781.957764 489.650513,781.341858 477.993225,773.984863 
	C477.987671,774.010193 478.038666,774.000854 477.836823,773.782410 
	C477.085022,773.367249 476.535034,773.170593 475.982117,772.996948 
	C475.979187,773.019958 476.025146,773.013367 475.891968,772.750488 
	C475.497650,772.189026 475.236572,771.890564 474.889038,771.285645 
	C474.102692,770.059265 473.537018,768.984558 472.682343,768.242859 
	C462.166809,759.116211 458.919922,747.289246 458.935486,733.805176 
	C459.054474,630.883850 459.002533,527.962341 459.004639,424.568848 
	C459.003510,366.043121 459.007996,307.989410 458.992798,249.935730 
	C458.990509,241.288849 458.895538,232.642014 458.843445,223.995148 
	C459.139801,201.065704 478.342468,183.388260 500.029236,181.977020 
	C669.455200,181.987259 837.993408,181.994400 1006.531677,181.993576 
	C1010.359192,181.993561 1014.186646,181.903473 1018.014160,181.855392 
z"/>
<path fill="#FFB8A8" opacity="1.000000" stroke="none" 
	d="
M459.003815,425.040863 
	C459.002533,527.962341 459.054474,630.883850 458.935486,733.805176 
	C458.919922,747.289246 462.166809,759.116211 472.682343,768.242859 
	C473.537018,768.984558 474.102692,770.059265 475.012054,771.563843 
	C475.489380,772.436768 475.757263,772.725037 476.025146,773.013367 
	C476.025146,773.013367 475.979187,773.019958 476.186401,773.212036 
	C476.941986,773.603027 477.490326,773.801941 478.038666,774.000854 
	C478.038666,774.000854 477.987671,774.010193 478.039307,774.329346 
	C484.883789,781.446899 491.558044,788.368835 498.491425,795.020752 
	C520.349487,815.991089 542.297974,836.867310 564.224915,857.765869 
	C577.596863,870.510620 591.005188,883.217163 604.376465,895.962646 
	C626.422852,916.977295 648.455933,938.005798 670.487793,959.035645 
	C685.778198,973.630493 701.011597,988.285522 716.368164,1002.810303 
	C721.132019,1007.316162 726.715088,1009.333191 733.348694,1007.124756 
	C734.438171,1006.762146 735.799438,1007.215942 737.035095,1007.292358 
	C729.528381,1018.265015 718.986816,1023.906616 704.979980,1025.026245 
	C535.047302,1025.014160 366.008545,1025.006104 196.969788,1025.005737 
	C193.641617,1025.005737 190.313431,1025.094482 186.985260,1025.141846 
	C166.602432,1025.506958 146.874908,1005.344238 145.985046,986.006836 
	C146.005615,815.395203 146.003113,645.670349 145.994675,475.945465 
	C145.994492,472.283417 145.926010,468.621368 145.889389,464.959320 
	C147.062347,449.432892 154.731949,438.097046 168.417587,430.984650 
	C172.663391,428.778107 177.451630,427.615326 182.872833,426.049316 
	C191.911514,426.081421 200.068893,426.002960 208.226273,426.002014 
	C288.140686,425.992767 368.055115,426.004272 447.969482,425.959473 
	C450.410156,425.958099 452.850464,425.409088 455.290955,425.115387 
	C455.290955,425.115387 455.492310,424.971039 456.014282,425.112122 
	C457.358765,425.182434 458.181305,425.111664 459.003815,425.040863 
z"/>
<path fill="#F5A623" opacity="1.000000" stroke="none" 
	d="
M737.347534,1007.129517 
	C735.799438,1007.215942 734.438171,1006.762146 733.348694,1007.124756 
	C726.715088,1009.333191 721.132019,1007.316162 716.368164,1002.810303 
	C701.011597,988.285522 685.778198,973.630493 670.487793,959.035645 
	C648.455933,938.005798 626.422852,916.977295 604.376465,895.962646 
	C591.005188,883.217163 577.596863,870.510620 564.224915,857.765869 
	C542.297974,836.867310 520.349487,815.991089 498.491425,795.020752 
	C491.558044,788.368835 484.883789,781.446899 478.044861,774.304077 
	C489.650513,781.341858 502.651550,781.957764 515.926392,781.939819 
	C591.955322,781.837097 667.984436,781.893860 744.487427,782.389404 
	C744.982361,830.629822 744.992310,878.377197 745.058716,926.124573 
	C745.061890,928.408325 745.563721,930.691406 745.833374,932.974792 
	C745.904358,953.243347 746.063293,973.512268 745.991760,993.780334 
	C745.970764,999.715759 741.467651,1003.215027 737.347534,1007.129517 
z"/>
<path fill="#FF9391" opacity="1.000000" stroke="none" 
	d="
M1058.396729,745.000793 
	C1057.996460,741.213440 1058.001831,737.218811 1058.001709,733.224243 
	C1057.994751,564.172729 1057.986694,395.121155 1057.996582,226.069611 
	C1057.996704,224.588104 1058.240479,223.106598 1058.610962,221.282562 
	C1058.901001,223.268204 1058.993408,225.596390 1058.993774,227.924561 
	C1059.017822,399.226776 1059.035034,570.528992 1059.041504,741.831177 
	C1059.041504,742.818665 1058.883667,743.806091 1058.396729,745.000793 
z"/>
<path fill="#FFF0ED" opacity="1.000000" stroke="none" 
	d="
M145.508362,465.166168 
	C145.926010,468.621368 145.994492,472.283417 145.994675,475.945465 
	C146.003113,645.670349 146.005615,815.395203 145.957993,985.588562 
	C145.602493,984.714355 145.031189,983.371704 145.030884,982.028931 
	C144.990829,810.473328 144.992554,638.917664 144.998093,467.362030 
	C144.998108,466.699036 145.082397,466.036011 145.508362,465.166168 
z"/>
<path fill="#FFF5F5" opacity="1.000000" stroke="none" 
	d="
M1017.797241,181.480545 
	C1014.186646,181.903473 1010.359192,181.993561 1006.531677,181.993576 
	C837.993408,181.994400 669.455200,181.987259 500.451416,181.918243 
	C501.338348,181.569229 502.690765,181.032700 504.043304,181.032410 
	C674.558289,180.994446 845.073303,180.995789 1015.588318,180.999969 
	C1016.252319,180.999985 1016.916260,181.068939 1017.797241,181.480545 
z"/>
<path fill="#FFF7F5" opacity="1.000000" stroke="none" 
	d="
M187.201538,1025.516846 
	C190.313431,1025.094482 193.641617,1025.005737 196.969788,1025.005737 
	C366.008545,1025.006104 535.047302,1025.014160 704.552124,1025.079346 
	C703.666687,1025.425781 702.315308,1025.966431 700.963806,1025.966675 
	C530.445740,1026.004883 359.927704,1026.003296 189.409653,1025.999023 
	C188.745712,1025.998901 188.081772,1025.929077 187.201538,1025.516846 
z"/>
<path fill="#FFAFAF" opacity="1.000000" stroke="none" 
	d="
M745.781921,781.723877 
	C748.236450,781.483826 750.690796,781.035034 753.145447,781.033936 
	C835.345825,780.997253 917.546143,781.006104 999.746521,780.998047 
	C1006.568359,780.997375 1013.390137,780.923828 1020.688660,780.944580 
	C1019.678223,781.343079 1018.191223,781.976257 1016.703979,781.976929 
	C928.659668,782.017395 840.615295,782.002014 752.570984,782.028381 
	C750.989746,782.028870 749.408630,782.470642 747.211426,782.695923 
	C746.324280,782.364868 746.053101,782.044373 745.781921,781.723877 
z"/>
<path fill="#FFBCAF" opacity="1.000000" stroke="none" 
	d="
M454.795349,425.064148 
	C452.850464,425.409088 450.410156,425.958099 447.969482,425.959473 
	C368.055115,426.004272 288.140686,425.992767 208.226273,426.002014 
	C200.068893,426.002960 191.911514,426.081421 183.272797,426.070404 
	C184.111893,425.668884 185.432190,425.016785 186.752762,425.016266 
	C275.935059,424.981720 365.117401,424.999542 454.795349,425.064148 
z"/>
<path fill="#FFFCFC" opacity="1.000000" stroke="none" 
	d="
M459.004639,424.568848 
	C458.181305,425.111664 457.358765,425.182434 456.129639,425.157196 
	C456.481903,422.847260 457.899506,420.634613 457.903717,418.419281 
	C458.023010,355.589478 457.999084,292.759430 458.004333,229.929428 
	C458.004486,228.097977 458.067383,226.266510 458.472229,224.215103 
	C458.895538,232.642014 458.990509,241.288849 458.992798,249.935730 
	C459.007996,307.989410 459.003510,366.043121 459.004639,424.568848 
z"/>
<path fill="#FFC08F" opacity="1.000000" stroke="none" 
	d="
M745.571106,781.771240 
	C746.053101,782.044373 746.324280,782.364868 746.833008,782.890076 
	C746.717407,784.982056 746.058472,786.868958 746.055725,788.756714 
	C745.985657,836.521240 745.984314,884.285828 745.902161,932.512573 
	C745.563721,930.691406 745.061890,928.408325 745.058716,926.124573 
	C744.992310,878.377197 744.982361,830.629822 744.952271,782.406921 
	C744.943176,781.931458 745.360291,781.818542 745.571106,781.771240 
z"/>
<path fill="#F5A623" opacity="1.000000" stroke="none" 
	d="
M477.836823,773.782410 
	C477.490326,773.801941 476.941986,773.603027 476.189362,773.188965 
	C476.535034,773.170593 477.085022,773.367249 477.836823,773.782410 
z"/>
<path fill="#F5A623" opacity="1.000000" stroke="none" 
	d="
M475.891968,772.750488 
	C475.757263,772.725037 475.489380,772.436768 475.098480,771.870239 
	C475.236572,771.890564 475.497650,772.189026 475.891968,772.750488 
z"/>
</svg>